HIERARCHY
ROOT Hips
{
  OFFSET 179.979 97.3047 303.174
  CHANNELS 6 Xposition Yposition Zposition Zrotation Xrotation Yrotation
  JOINT Spine
  {
    OFFSET 0.000859786 9.92346 -1.22733
    CHANNELS 3 Zrotation Xrotation Yrotation
    JOINT Spine1
    {
      OFFSET 0 11.732 0
      CHANNELS 3 Zrotation Xrotation Yrotation
      JOINT Spine2
      {
        OFFSET 0 13.4588 0
        CHANNELS 3 Zrotation Xrotation Yrotation
        JOINT Neck
        {
          OFFSET 2.54812e-05 15.0278 0.877907
          CHANNELS 3 Zrotation Xrotation Yrotation
          JOINT Head
          {
            OFFSET 0 10.3218 3.14243
            CHANNELS 3 Zrotation Xrotation Yrotation
            End Site
            {
              OFFSET 0 0 0
            }
          }
        }
        JOINT LeftShoulder
        {
          OFFSET 6.10582 9.10629 0.757062
          CHANNELS 3 Zrotation Xrotation Yrotation
          JOINT LeftArm
          {
            OFFSET 0 12.9223 0
            CHANNELS 3 Zrotation Xrotation Yrotation
            JOINT LeftForeArm
            {
              OFFSET 0 27.4047 0
              CHANNELS 3 Zrotation Xrotation Yrotation
              JOINT LeftHand
              {
                OFFSET -1.28204e-05 27.6145 0
                CHANNELS 3 Zrotation Xrotation Yrotation
                End Site
                {
                  OFFSET 0 0 0
                }
              }
            }
          }
        }
        JOINT RightShoulder
        {
          OFFSET -6.1057 9.10638 0.757076
          CHANNELS 3 Zrotation Xrotation Yrotation
          JOINT RightArm
          {
            OFFSET 0 12.9223 0
            CHANNELS 3 Zrotation Xrotation Yrotation
            JOINT RightForeArm
            {
              OFFSET 0 27.4047 0
              CHANNELS 3 Zrotation Xrotation Yrotation
              JOINT RightHand
              {
                OFFSET 1.28428e-05 27.6145 1.44975e-05
                CHANNELS 3 Zrotation Xrotation Yrotation
                End Site
                {
                  OFFSET 0 0 0
                }
              }
            }
          }
        }
      }
    }
  }
  JOINT LeftUpLeg
  {
    OFFSET 9.12387 -6.65719 -0.0554031
    CHANNELS 3 Zrotation Xrotation Yrotation
    JOINT LeftLeg
    {
      OFFSET 0 40.5994 0
      CHANNELS 3 Zrotation Xrotation Yrotation
      JOINT LeftFoot
      {
        OFFSET 0 42.099 0
        CHANNELS 3 Zrotation Xrotation Yrotation
        JOINT LeftToeBase
        {
          OFFSET 0 15.7216 0
          CHANNELS 3 Zrotation Xrotation Yrotation
          End Site
          {
            OFFSET 0 0 0
          }
        }
      }
    }
  }
  JOINT RightUpLeg
  {
    OFFSET -9.12503 -6.6556 -0.0553527
    CHANNELS 3 Zrotation Xrotation Yrotation
    JOINT RightLeg
    {
      OFFSET 0 40.5994 0
      CHANNELS 3 Zrotation Xrotation Yrotation
      JOINT RightFoot
      {
        OFFSET 0 42.099 0
        CHANNELS 3 Zrotation Xrotation Yrotation
        JOINT RightToeBase
        {
          OFFSET 0 15.7216 0
          CHANNELS 3 Zrotation Xrotation Yrotation
          End Site
          {
            OFFSET 0 0 0
          }
        }
      }
    }
  }
}
MOTION
Frames:	20
Frame Time:	0.0333333
-27.7639 98.6321 313.333 -0.769416 -7.62738 -1.61879 0.173796 -4.72631 0.172541 0.296637 4.4815 0.288956 0.264359 11.0759 0.291717 -3.65772 -4.95026 -2.77104 4.79795 1.98035 -4.84894 -89.0201 -19.2154 89.8319 20.6421 6.06945 -17.7819 10.1672 -15.5611 -0.677113 -14.4988 5.60074 -7.70657 87.288 -8.26998 -90.6435 -12.6288 13.8253 30.347 -16.6017 -19.9412 0.928067 15.9808 1.5016 -6.00668 -175.407 -4.68225 -10.669 -2.92781 -17.4137 -2.72662 13.7637 80.1704 -12.5518 -0.96527 26.367 -3.60229 178.65 -2.85409 0.61004 4.85878 -18.3684 15.0448 -41.6223 75.1971 42.8597 0.963542 26.3682 3.55537 
-27.7638 98.6321 313.338 -0.768873 -7.6274 -1.6147 0.173796 -4.72631 0.172541 0.296637 4.4815 0.288956 0.264359 11.0759 0.291717 -3.65898 -4.96532 -2.77681 4.80771 1.99679 -4.85794 -89.02 -19.2209 89.8321 20.654 6.0717 -17.7845 10.1672 -15.5611 -0.677113 -14.4989 5.60822 -7.70667 87.2878 -8.28031 -90.6442 -12.646 13.8233 30.3463 -16.6072 -19.9447 0.928087 15.9822 1.51297 -6.0139 -175.407 -4.68614 -10.6691 -2.92688 -17.4101 -2.72373 13.7555 80.1726 -12.5443 -0.96527 26.367 -3.60229 178.65 -2.85024 0.610038 4.85878 -18.3684 15.0448 -41.629 75.1983 42.8683 0.963542 26.3682 3.55537 
-27.7629 98.6319 313.364 -0.766226 -7.6197 -1.59637 0.173796 -4.72631 0.172541 0.300829 4.4815 0.288954 0.268709 11.0759 0.291215 -3.66585 -5.0298 -2.81594 4.8407 2.03617 -4.90394 -89.0199 -19.2272 89.8324 20.6948 6.08254 -17.794 10.1733 -15.5611 -0.677113 -14.5071 5.64996 -7.70217 87.2872 -8.31784 -90.6468 -12.7232 13.8112 30.3365 -16.6367 -19.9611 0.928184 15.9843 1.56039 -6.04628 -175.411 -4.70407 -10.6693 -2.92274 -17.3915 -2.71136 13.7145 80.1846 -12.5095 -0.96527 26.367 -3.60229 178.65 -2.86994 0.610049 4.85722 -18.363 15.0443 -41.6508 75.2073 42.9044 0.963542 26.3682 3.55537 
-27.7624 98.6316 313.389 -0.764491 -7.61148 -1.585 0.173796 -4.72631 0.172541 0.305872 4.4815 0.288952 0.273992 11.0759 0.290604 -3.63988 -5.05411 -2.85275 4.84863 1.99597 -4.93123 -89.0206 -19.191 89.8368 20.7009 6.08985 -17.8094 10.18 -15.5611 -0.677113 -14.5314 5.68438 -7.69061 87.2875 -8.30056 -90.6491 -12.731 13.7901 30.3057 -16.6564 -19.9603 0.928179 16.0094 1.56421 -6.02919 -175.413 -4.71346 -10.6695 -2.92031 -17.388 -2.70277 13.6893 80.2027 -12.4935 -0.96527 26.367 -3.60229 178.65 -2.8641 0.610046 4.8615 -18.3781 15.0457 -41.6702 75.216 42.94 0.963542 26.3682 3.55537 
-27.7575 98.6313 313.414 -0.77103 -7.60144 -1.58428 0.173796 -4.72631 0.172541 0.315193 4.4815 0.288949 0.282695 11.0759 0.293865 -3.59848 -5.0598 -2.87072 4.85835 1.92739 -4.93633 -89.0272 -19.1456 89.8408 20.6941 6.0871 -17.8176 10.1844 -15.557 -0.677099 -14.5378 5.72356 -7.65952 87.2884 -8.24448 -90.6551 -12.684 13.7602 30.2688 -16.669 -19.9437 0.928082 16.0346 1.5524 -6.01358 -175.413 -4.71752 -10.6696 -2.92072 -17.3938 -2.70333 13.7092 80.224 -12.5233 -0.96527 26.367 -3.60229 178.65 -2.88002 0.610054 4.8585 -18.3675 15.0447 -41.6467 75.2215 42.9362 0.963542 26.3682 3.55537 
-27.7502 98.6309 313.443 -0.779681 -7.58404 -1.59552 0.173796 -4.72631 0.172541 0.326488 4.48703 0.292873 0.293526 11.0814 0.297868 -3.56517 -5.09173 -2.87393 4.86593 1.87594 -4.92872 -89.0395 -19.1277 89.8422 20.6868 6.06288 -17.7885 10.1885 -15.5476 -0.677068 -14.5116 5.75837 -7.64275 87.2885 -8.19821 -90.6585 -12.6317 13.7379 30.2271 -16.6899 -19.931 0.928007 16.0299 1.55786 -6.05162 -175.414 -4.72265 -10.6696 -2.9228 -17.3901 -2.7118 13.7379 80.2421 -12.5607 -0.96527 26.367 -3.60229 178.65 -2.89 0.602208 4.8537 -18.3505 15.0432 -41.6047 75.2251 42.9197 0.963542 26.3682 3.55537 
-27.7412 98.6303 313.477 -0.786303 -7.5546 -1.61153 0.173796 -4.72631 0.172541 0.337351 4.49673 0.299588 0.303595 11.0911 0.304686 -3.55471 -5.14993 -2.88306 4.8599 1.83428 -4.92946 -89.0493 -19.1427 89.841 20.6918 6.02112 -17.7263 10.1972 -15.5311 -0.677014 -14.4935 5.76438 -7.64617 87.2885 -8.17767 -90.6612 -12.5652 13.7192 30.1439 -16.7249 -19.9367 0.92804 16.0097 1.57365 -6.12648 -175.415 -4.72795 -10.6697 -2.92504 -17.3666 -2.72433 13.7689 80.2526 -12.6011 -0.96527 26.367 -3.60229 178.65 -2.89235 0.585916 4.84685 -18.3263 15.0411 -41.5813 75.2253 42.9095 0.963542 26.3682 3.55537 
-27.7323 98.6296 313.514 -0.788256 -7.51811 -1.61756 0.177294 -4.72631 0.172965 0.346625 4.50751 0.309479 0.311698 11.1019 0.314735 -3.57643 -5.17112 -2.90227 4.87305 1.77289 -4.95429 -89.05 -19.1529 89.8407 20.6966 5.97578 -17.6665 10.2098 -15.5278 -0.677003 -14.5107 5.76458 -7.64639 87.2886 -8.14635 -90.6615 -12.4232 13.6811 30.0196 -16.7686 -19.9534 0.928139 16.0054 1.58044 -6.16126 -175.422 -4.72568 -10.6663 -2.92601 -17.342 -2.7323 13.8112 80.262 -12.6561 -0.96527 26.367 -3.60229 178.649 -2.87676 0.571841 4.84582 -18.3179 15.0449 -41.5807 75.2257 42.9203 0.963542 26.3682 3.55537 
-27.7237 98.6288 313.552 -0.786322 -7.4786 -1.60604 0.181068 -4.7263 0.173423 0.355182 4.51354 0.316772 0.31941 11.1079 0.322148 -3.60965 -5.11711 -2.91499 4.9308 1.71284 -4.98975 -89.0448 -19.1414 89.8404 20.6906 5.93444 -17.6367 10.2281 -15.5466 -0.677065 -14.5445 5.78105 -7.61774 87.2887 -8.10156 -90.6591 -12.2387 13.6251 29.9284 -16.7949 -19.9722 0.92825 16.0209 1.57105 -6.17077 -175.427 -4.71306 -10.6601 -2.92879 -17.3273 -2.73422 13.8472 80.2725 -12.698 -0.96527 26.367 -3.60229 178.645 -2.86872 0.575173 4.84471 -18.3085 15.0493 -41.6051 75.2308 42.9565 0.963542 26.3682 3.55537 
-27.7139 98.628 313.593 -0.781114 -7.43869 -1.57791 0.184138 -4.7263 0.173796 0.362459 4.51061 0.315055 0.326878 11.105 0.32042 -3.61094 -5.01289 -2.91549 4.98228 1.70444 -5.00653 -89.0407 -19.1255 89.839 20.6744 5.89399 -17.6203 10.2574 -15.568 -0.677135 -14.5533 5.78143 -7.59434 87.288 -8.09016 -90.6579 -12.1148 13.5714 29.9145 -16.7898 -19.9788 0.928288 16.0403 1.55962 -6.17271 -175.434 -4.69978 -10.6437 -2.93721 -17.3097 -2.73358 13.8594 80.2758 -12.6983 -0.96527 26.367 -3.60229 178.639 -2.83899 0.593165 4.85119 -18.3242 15.0575 -41.6385 75.2369 43.0033 0.963542 26.3682 3.55537 
-27.7011 98.6272 313.64 -0.772405 -7.3995 -1.53864 0.184825 -4.7263 0.173879 0.365793 4.50403 0.303537 0.331564 11.0984 0.308732 -3.55293 -4.87964 -2.91965 4.95401 1.73105 -4.99303 -89.0291 -19.1076 89.84 20.6392 5.85978 -17.588 10.2942 -15.5796 -0.677174 -14.536 5.74669 -7.61567 87.2861 -8.11991 -90.6591 -12.0731 13.5297 29.9188 -16.7612 -19.9713 0.928244 16.0392 1.56572 -6.16212 -175.45 -4.69838 -10.6185 -2.94884 -17.2723 -2.73188 13.9217 80.2577 -12.7071 -0.96527 26.367 -3.60229 178.628 -2.85615 0.604 4.84694 -18.291 15.0719 -41.6668 75.2385 43.0508 0.963542 26.3682 3.55537 
-27.6853 98.63 313.693 -0.759484 -7.36281 -1.50631 0.185545 -4.7263 0.173966 0.365351 4.49896 0.289649 0.332748 11.0933 0.294603 -3.48584 -4.74539 -2.9353 4.8783 1.75454 -4.97637 -89.0098 -19.0855 89.844 20.5902 5.83751 -17.5401 10.3197 -15.588 -0.677201 -14.5208 5.71912 -7.66139 87.2826 -8.15234 -90.661 -12.0549 13.4968 29.879 -16.7467 -19.9627 0.928194 16.033 1.57229 -6.1256 -175.476 -4.71248 -10.6004 -2.95475 -17.2224 -2.73072 13.9774 80.2407 -12.7195 -0.96527 26.367 -3.60229 178.612 -2.84888 0.603166 4.84369 -18.2849 15.0915 -41.6977 75.2365 43.1072 0.963542 26.3682 3.55537 
-27.6691 98.6323 313.747 -0.749135 -7.33038 -1.50113 0.186214 -4.7263 0.174047 0.367275 4.49742 0.282756 0.335483 11.0918 0.287605 -3.46214 -4.65339 -2.95094 4.83278 1.79254 -4.97696 -88.9955 -19.0706 89.8479 20.5532 5.81958 -17.5025 10.3213 -15.5879 -0.677201 -14.5283 5.73418 -7.67793 87.2786 -8.16514 -90.6613 -12.0216 13.4691 29.8154 -16.7634 -19.9594 0.928174 16.0242 1.56259 -6.07711 -175.505 -4.73378 -10.6068 -2.95379 -17.1779 -2.73103 14.0244 80.2311 -12.7383 -0.96527 26.367 -3.60229 178.595 -2.85645 0.60546 4.83309 -18.273 15.0915 -41.6755 75.2388 43.1147 0.963542 26.3682 3.55537 
-27.655 98.6348 313.801 -0.746221 -7.30009 -1.52069 0.186857 -4.7263 0.174125 0.375723 4.49751 0.284557 0.343715 11.0919 0.289444 -3.47829 -4.60136 -2.94896 4.83939 1.85948 -4.98458 -88.999 -19.0627 89.8485 20.5364 5.79438 -17.4888 10.3092 -15.5719 -0.677148 -14.5452 5.77677 -7.65941 87.2746 -8.15067 -90.661 -11.9578 13.4337 29.7628 -16.7889 -19.9588 0.92817 16.0019 1.56473 -6.08306 -175.526 -4.76037 -10.6185 -2.95856 -17.1363 -2.74303 14.1023 80.2232 -12.7959 -0.96527 26.367 -3.60229 178.583 -2.8609 0.621658 4.81451 -18.2637 15.068 -41.6012 75.2485 43.0695 0.963542 26.3682 3.55537 
-27.6431 98.6386 313.854 -0.747861 -7.26778 -1.55526 0.187495 -4.7263 0.174203 0.389378 4.4982 0.29524 0.356144 11.0926 0.30027 -3.50726 -4.5464 -2.92881 4.8799 1.90594 -4.98915 -89.0194 -19.0483 89.8496 20.5338 5.75982 -17.5176 10.2981 -15.5419 -0.677049 -14.5528 5.81269 -7.63832 87.2718 -8.10595 -90.6634 -11.8476 13.3785 29.7051 -16.7918 -19.9595 0.928175 15.9672 1.58561 -6.13582 -175.537 -4.78753 -10.6347 -2.9715 -17.0958 -2.76187 14.1871 80.2119 -12.865 -0.96527 26.367 -3.60229 178.576 -2.87737 0.63128 4.79449 -18.2335 15.0379 -41.5168 75.2595 43.0129 0.963542 26.3682 3.55537 
-27.632 98.6445 313.908 -0.738433 -7.23503 -1.58067 0.188154 -4.7263 0.174283 0.397146 4.49844 0.307404 0.362493 11.0928 0.312638 -3.50858 -4.48779 -2.91265 4.91442 1.89713 -4.98425 -89.0359 -19.0186 89.852 20.5318 5.72687 -17.5456 10.2891 -15.5293 -0.677008 -14.5459 5.84186 -7.63862 87.2707 -8.05341 -90.667 -11.7142 13.3098 29.6268 -16.7787 -19.9607 0.928181 15.9553 1.58295 -6.17574 -175.557 -4.80624 -10.6389 -2.98779 -17.0622 -2.78364 14.2498 80.1847 -12.9145 -0.96527 26.367 -3.60229 178.558 -2.86476 0.623974 4.78584 -18.2198 15.0257 -41.4635 75.266 42.9902 0.963542 26.3682 3.55537 
-27.6197 98.6482 313.962 -0.726898 -7.19944 -1.58278 0.188856 -4.7263 0.174368 0.397033 4.4972 0.312105 0.361814 11.0916 0.317433 -3.42946 -4.4698 -2.92286 4.87541 1.88001 -4.96167 -89.0229 -18.979 89.8526 20.514 5.7074 -17.5018 10.286 -15.5499 -0.677076 -14.5288 5.85163 -7.62242 87.2851 -8.0387 -90.6694 -11.6194 13.2382 29.5498 -16.782 -19.9626 0.928193 15.9849 1.54976 -6.17404 -175.578 -4.82626 -10.6377 -3.0025 -17.0171 -2.79499 14.2934 80.1706 -12.9442 -0.96527 26.367 -3.60229 178.538 -2.87506 0.616167 4.77686 -18.1916 15.0238 -41.4337 75.2707 42.9959 0.963542 26.3682 3.55537 
-27.6077 98.6517 314.017 -0.708225 -7.15496 -1.55717 0.189633 -4.72844 0.174462 0.386332 4.49291 0.304298 0.352028 11.0873 0.309488 -3.28098 -4.47452 -2.95495 4.75827 1.88251 -4.92084 -88.9821 -18.9393 89.8576 20.4735 5.70156 -17.3894 10.3075 -15.5893 -0.681629 -14.5025 5.84034 -7.57416 87.318 -8.07126 -90.6701 -11.594 13.1685 29.4762 -16.7996 -19.9698 0.928235 16.0283 1.53351 -6.14967 -175.604 -4.83736 -10.634 -3.01086 -16.9639 -2.78962 14.2695 80.1591 -12.9069 -0.96527 26.367 -3.60229 178.512 -2.88017 0.623611 4.77096 -18.1682 15.0271 -41.422 75.2762 43.0178 0.963542 26.3682 3.55537 
-27.5975 98.6553 314.073 -0.691759 -7.10126 -1.52856 0.190519 -4.73638 0.174568 0.373953 4.47698 0.293947 0.340871 11.0714 0.298974 -3.14829 -4.43172 -2.98672 4.65731 1.87182 -4.88944 -88.946 -18.9094 89.8627 20.4386 5.68489 -17.3234 10.3705 -15.6234 -0.686124 -14.4706 5.84481 -7.5476 87.3499 -8.11077 -90.6713 -11.6003 13.1144 29.4018 -16.7995 -19.9809 0.928301 16.0334 1.55617 -6.11422 -175.625 -4.84013 -10.6305 -3.01656 -16.9082 -2.77838 14.2385 80.1498 -12.8666 -0.96527 26.367 -3.60229 178.49 -2.88175 0.638221 4.76446 -18.1432 15.0287 -41.4191 75.283 43.0425 0.963542 26.3682 3.55537 
-27.588 98.6578 314.13 -0.684953 -7.04923 -1.52242 0.191514 -4.74821 0.175125 0.366577 4.45328 0.297021 0.333115 11.0477 0.302059 -3.07172 -4.3257 -3.01025 4.62132 1.83121 -4.88327 -88.9379 -18.8971 89.8641 20.4569 5.62394 -17.3706 10.4641 -15.643 -0.6903 -14.4494 5.88545 -7.59038 87.3687 -8.11692 -90.6722 -11.573 13.0849 29.3413 -16.7775 -19.9873 0.928339 15.9977 1.58159 -6.09886 -175.638 -4.84346 -10.6283 -3.02644 -16.8618 -2.78043 14.2505 80.1496 -12.8758 -0.96527 26.367 -3.60229 178.479 -2.88386 0.640009 4.75809 -18.1231 15.0256 -41.4119 75.2908 43.0578 0.963542 26.3682 3.55537 
